<svg width="265" height="70" viewBox="0 0 265 70" fill="none" xmlns="http://www.w3.org/2000/svg">
<path d="M87.1068 22.7988V28.9628L92.8508 28.9801C95.6761 28.9801 97.4561 28.3215 97.4561 25.8615C97.4561 23.4588 95.6761 22.7988 92.8508 22.7988H87.1068ZM87.1068 12.3028V18.3028H92.3534C94.9054 18.3028 96.8868 17.7708 96.8868 15.2748C96.8868 12.8535 94.8681 12.3028 92.3361 12.3028H87.1068ZM92.4841 7.78947C98.4654 7.78947 102.225 10.0095 102.225 14.9081C102.225 17.4948 100.648 19.5681 98.5001 20.3588C100.849 21.1468 102.777 23.3495 102.777 26.1188C102.777 31.0548 99.2721 33.4761 93.1081 33.4761H81.9881V7.78947H92.4841Z" fill="#010101"/>
<path d="M109.965 24.578C109.965 27.294 111.743 29.4767 114.552 29.4767C117.287 29.4767 119.137 27.3847 119.137 24.578C119.137 21.7714 117.287 19.6794 114.552 19.6794C111.743 19.6794 109.965 21.8634 109.965 24.578ZM123.669 33.4767H118.992V31.514C117.836 32.9447 116.112 33.9354 113.672 33.9354C108.772 33.9354 105.065 29.9167 105.065 24.578C105.065 19.2394 108.772 15.2207 113.672 15.2207C116.112 15.2207 117.817 16.2114 118.992 17.6607V15.6967H123.669V33.4767Z" fill="#010101"/>
<path d="M132.382 22.0284H134.07L139.08 15.6964H144.951L137.942 24.0644L145.004 33.4764H139.115L133.996 26.2844H132.382V33.4764H127.592V7.05505H132.382V22.0284Z" fill="#010101"/>
<path d="M163.602 25.8988C163.602 31.5148 159.638 33.9348 155.198 33.9348C150.739 33.9348 146.777 31.5148 146.777 25.8988V15.6974H151.565V25.4774C151.565 28.3214 153.125 29.4761 155.198 29.4761C157.253 29.4761 158.833 28.3214 158.833 25.4774V15.6974H163.602V25.8988Z" fill="#010101"/>
<path d="M101.18 62.2645H81.9884V36.5765H101.034V41.2738H87.1071V46.9618H100.391V51.6591H87.1071V57.5671H101.18V62.2645Z" fill="#010101"/>
<path d="M109.78 62.2646H104.991V35.8433H109.78V62.2646Z" fill="#010101"/>
<path d="M117.808 51.6959H125.68C125.24 49.4213 123.863 48.1359 121.808 48.1359C119.552 48.1359 118.229 49.4933 117.808 51.6959ZM130.487 53.3479C130.487 53.8986 130.451 54.5573 130.395 54.9613H117.789C118.304 57.5306 120.101 58.6493 122.359 58.6493C123.9 58.6493 125.569 58.0253 126.855 56.9426L129.661 60.0253C127.641 61.8786 125.075 62.7226 122.084 62.7226C116.633 62.7226 112.855 59.0173 112.855 53.4199C112.855 47.8239 116.523 44.0079 121.844 44.0079C126.964 44.0079 130.469 47.8066 130.487 53.3479Z" fill="#010101"/>
<path d="M148.996 47.3656L145.545 50.247C144.463 49.0896 143.308 48.4656 141.748 48.4656C139.272 48.4656 137.291 50.4123 137.291 53.3656C137.291 56.339 139.255 58.2643 141.729 58.2643C143.271 58.2643 144.593 57.567 145.601 56.467L149.015 59.383C147.344 61.531 144.849 62.723 141.877 62.723C136.208 62.723 132.409 58.759 132.409 53.3656C132.409 47.9896 136.208 44.0083 141.877 44.0083C144.849 44.0083 147.363 45.2203 148.996 47.3656Z" fill="#010101"/>
<path d="M165.032 48.7425H158.591V55.2371C158.591 57.4585 159.765 58.2638 161.252 58.2638C162.391 58.2638 163.619 57.6958 164.591 57.1091L166.353 60.8518C164.792 61.9158 162.993 62.7225 160.463 62.7225C156.059 62.7225 153.803 60.2278 153.803 55.6225V48.7425H150.371V44.4851H153.803V39.1998H158.591V44.4851H165.032V48.7425Z" fill="#010101"/>
<path d="M180.558 44.393L179.842 49.1463C179.054 48.797 177.917 48.577 176.943 48.577C174.723 48.577 173.201 49.9343 173.201 52.577V62.265H168.411V44.485H173.054V46.429C174.171 44.7596 175.878 44.009 178.063 44.009C179.091 44.009 179.898 44.1543 180.558 44.393Z" fill="#010101"/>
<path d="M186.134 53.3656C186.134 56.247 188.151 58.2643 190.848 58.2643C193.546 58.2643 195.583 56.247 195.583 53.3656C195.583 50.4843 193.546 48.4656 190.848 48.4656C188.151 48.4656 186.134 50.4843 186.134 53.3656ZM200.483 53.3656C200.483 58.7243 196.39 62.723 190.848 62.723C185.326 62.723 181.254 58.7243 181.254 53.3656C181.254 48.007 185.326 44.0083 190.848 44.0083C196.39 44.0083 200.483 48.007 200.483 53.3656Z" fill="#010101"/>
<path d="M219.504 50.9431V62.2645H214.715V52.4845C214.715 49.9165 213.432 48.5031 211.248 48.5031C209.194 48.5031 207.487 49.8431 207.487 52.5218V62.2645H202.698V44.4845H207.359V46.5778C208.626 44.6871 210.568 44.0085 212.587 44.0085C216.623 44.0085 219.504 46.8151 219.504 50.9431Z" fill="#010101"/>
<path d="M228.07 62.2646H223.28V44.4846H228.07V62.2646ZM228.712 38.6699C228.712 40.3939 227.372 41.7139 225.648 41.7139C223.923 41.7139 222.602 40.3939 222.602 38.6699C222.602 36.9433 223.923 35.5859 225.648 35.5859C227.372 35.5859 228.712 36.9433 228.712 38.6699Z" fill="#010101"/>
<path d="M247.297 47.3656L243.846 50.247C242.763 49.0896 241.609 48.4656 240.049 48.4656C237.571 48.4656 235.59 50.4123 235.59 53.3656C235.59 56.339 237.554 58.2643 240.029 58.2643C241.571 58.2643 242.893 57.567 243.901 56.467L247.314 59.383C245.645 61.531 243.15 62.723 240.177 62.723C234.507 62.723 230.709 58.759 230.709 53.3656C230.709 47.9896 234.507 44.0083 240.177 44.0083C243.15 44.0083 245.663 45.2203 247.297 47.3656Z" fill="#010101"/>
<path d="M262.79 49.4391C261.377 48.7431 259.119 48.0071 257.119 47.9897C255.303 47.9897 254.386 48.6311 254.386 49.6044C254.386 50.6311 255.67 50.8884 257.286 51.1271L258.862 51.3657C262.717 51.9537 264.863 53.6777 264.863 56.6857C264.863 60.3564 261.854 62.7231 256.697 62.7231C254.275 62.7231 251.101 62.2644 248.79 60.6311L250.681 56.9977C252.202 58.0084 254.055 58.7417 256.735 58.7417C258.954 58.7417 260.018 58.1177 260.018 57.0724C260.018 56.2097 259.119 55.7324 257.063 55.4391L255.614 55.2364C251.506 54.6684 249.467 52.8698 249.467 49.8431C249.467 46.1911 252.294 44.0257 256.971 44.0257C259.818 44.0257 262.037 44.5591 264.405 45.7151L262.79 49.4391Z" fill="#010101"/>
<path d="M0 34.8853C0 15.616 15.624 8.093e-06 34.892 8.093e-06C54.1693 8.093e-06 69.7853 15.616 69.7853 34.8853C69.7853 54.1547 54.1693 69.7773 34.892 69.7773C15.624 69.7773 0 54.1547 0 34.8853Z" fill="#EB2427"/>
<path d="M18.4155 27.8236C18.4155 26.5663 17.9768 25.4916 17.0981 24.605C16.2341 23.7036 15.1821 23.257 13.9168 23.257H9.43412V27.8236C9.43412 29.081 9.85812 30.1636 10.7208 31.0796C11.5995 31.981 12.6675 32.4276 13.9168 32.4276C15.1821 32.4276 16.2341 31.981 17.0981 31.0796C17.9768 30.1636 18.4155 29.081 18.4155 27.8236ZM9.41145 19.637V20.2276H13.9168C16.0381 20.2276 17.8555 20.9703 19.3621 22.4543C20.8848 23.9316 21.6488 25.7183 21.6488 27.8236C21.6488 29.929 20.8848 31.7316 19.3621 33.2303C17.8395 34.7076 16.0301 35.457 13.9168 35.457C11.8115 35.457 10.0008 34.7076 8.47945 33.2303C6.96479 31.7316 6.21545 29.929 6.21545 27.8236V16.441C7.08612 16.441 7.84345 16.7583 8.45679 17.3956C9.09279 18.009 9.41145 18.7663 9.41145 19.637Z" fill="#F9FBFC"/>
<path d="M34.5989 32.3628V27.7962C34.5989 26.5388 34.1603 25.4628 33.2816 24.5628C32.4176 23.6455 31.3656 23.1908 30.1083 23.1908C28.8509 23.1908 27.7829 23.6455 26.9123 24.5628C26.0483 25.4628 25.6176 26.5388 25.6176 27.7962C25.6176 29.0455 26.0483 30.1282 26.9123 31.0295C27.7829 31.9162 28.8509 32.3628 30.1083 32.3628H34.5989ZM37.8323 27.7962V35.3922H30.1083C28.0029 35.3922 26.1843 34.6495 24.6629 33.1802C23.1563 31.6962 22.3989 29.9015 22.3989 27.7962C22.3989 25.6908 23.1563 23.8882 24.6629 22.4108C26.1843 20.9122 28.0029 20.1615 30.1083 20.1615C32.2136 20.1615 34.0229 20.9122 35.5456 22.4108C37.0749 23.8882 37.8323 25.6908 37.8323 27.7962Z" fill="#F9FBFC"/>
<path d="M37.8326 52.0355H34.6366V37.0408C35.5153 37.0408 36.2579 37.3581 36.8859 37.9941C37.5139 38.6155 37.8326 39.3648 37.8326 40.2435V43.0688H42.0659C43.3086 43.0688 44.3606 42.6141 45.2393 41.6981C46.1179 40.7888 46.2766 40.3875 46.4966 39.3808C46.4966 39.3808 46.6406 37.0408 49.7526 37.0408V38.4635C49.7526 39.6835 49.4726 40.8341 48.9126 41.9101C48.3673 42.9781 47.6099 43.8715 46.6326 44.5981C47.6099 45.3181 48.3673 46.2195 48.9126 47.2941C49.4726 48.3621 49.7526 49.4981 49.7526 50.7021V52.0355H46.5499V50.7021C46.5499 49.4608 46.1179 48.3781 45.2393 47.4688C44.3606 46.5528 43.3086 46.0981 42.0659 46.0981H37.8326V52.0355Z" fill="#F9FBFC"/>
<path d="M63.12 44.6364C63.12 45.8791 62.6813 46.9618 61.8026 47.8698C60.9306 48.7871 59.8706 49.1271 58.6293 49.1271C57.372 49.1271 56.304 48.7938 55.4333 47.8924C54.5546 46.9764 54.1146 45.8938 54.1146 44.6364V40.2444C54.1146 39.3658 53.8053 38.6151 53.168 37.9951C52.548 37.3578 51.7973 37.0404 50.92 37.0404V44.6364C50.92 46.7418 51.6773 48.5444 53.1906 50.0431C54.6986 51.5284 56.508 52.2698 58.6293 52.2698C60.7346 52.2698 62.544 51.5284 64.052 50.0431C65.5667 48.5444 66.316 46.7418 66.316 44.6364V37.0404C65.4453 37.0404 64.688 37.3578 64.052 37.9951C63.4306 38.6151 63.12 39.3658 63.12 40.2444V44.6364Z" fill="#F9FBFC"/>
<path d="M39.3167 30.6532V35.3879H42.53V35.1319H39.61V33.0479H42.3207V32.7999H39.61V30.8999H42.498V30.6532H39.3167Z" fill="#F9FBFC"/>
<path d="M42.8069 35.3873H43.0616V30.6526H42.8069V35.3873Z" fill="#F9FBFC"/>
<path d="M43.7264 33.4953C43.7651 33.1247 43.8811 32.8073 44.0891 32.5527C44.3211 32.2593 44.6224 32.1207 44.9771 32.1207C45.3557 32.1207 45.6651 32.2593 45.8891 32.538C46.1051 32.7927 46.2131 33.1167 46.2211 33.4953H43.7264ZM43.8424 32.4753C43.6024 32.8153 43.4797 33.2327 43.4797 33.742C43.4797 34.2287 43.6024 34.638 43.8504 34.9473C44.1197 35.2953 44.4984 35.4647 44.9771 35.4647C45.8277 35.4647 46.3131 35.0553 46.4531 34.2367H46.1984C46.1437 34.554 46.0051 34.8007 45.7891 34.986C45.5717 35.1633 45.3024 35.2487 44.9771 35.2487C44.5611 35.2487 44.2437 35.086 44.0197 34.778C43.8197 34.4993 43.7184 34.1433 43.7264 33.7193H46.4837C46.5064 33.194 46.3904 32.7687 46.1517 32.4447C45.8811 32.082 45.4944 31.9047 44.9771 31.9047C44.4904 31.9047 44.1131 32.09 43.8424 32.4753Z" fill="#F9FBFC"/>
<path d="M46.6842 33.6421C46.6842 34.1754 46.8082 34.6074 47.0549 34.9314C47.3335 35.2874 47.7269 35.4727 48.2442 35.4727C48.6375 35.4727 48.9629 35.3487 49.2175 35.1247C49.4802 34.8927 49.6349 34.5767 49.6802 34.1901H49.4255C49.3869 34.5074 49.2562 34.7621 49.0402 34.9554C48.8309 35.1487 48.5682 35.2487 48.2442 35.2487C47.8042 35.2487 47.4642 35.0861 47.2402 34.7621C47.0322 34.4767 46.9309 34.1061 46.9309 33.6421C46.9309 33.2167 47.0389 32.8701 47.2629 32.5834C47.5109 32.2754 47.8349 32.1207 48.2442 32.1207C48.5682 32.1207 48.8229 32.1901 49.0242 32.3367C49.2562 32.4994 49.3802 32.7314 49.4029 33.0394H49.6495C49.6189 32.6541 49.4642 32.3594 49.2015 32.1674C48.9549 31.9901 48.6375 31.9047 48.2442 31.9047C47.7495 31.9047 47.3642 32.0741 47.0775 32.4141C46.8149 32.7314 46.6842 33.1407 46.6842 33.6421Z" fill="#F9FBFC"/>
<path d="M50.2986 32.1979V34.5765C50.2986 34.8552 50.3599 35.0712 50.4919 35.1939C50.6226 35.3259 50.8239 35.3952 51.1093 35.3952C51.1639 35.3952 51.2173 35.3872 51.2799 35.3872V35.1712C51.0239 35.1792 50.8466 35.1485 50.7386 35.0779C50.6146 34.9939 50.5533 34.8232 50.5533 34.5765V32.1979H51.2866V31.9819H50.5533V30.9232H50.2986V31.9819H49.6733V32.1979H50.2986Z" fill="#F9FBFC"/>
<path d="M51.5188 31.9814V35.3868H51.7735V33.5254C51.7735 33.1241 51.9055 32.7921 52.1521 32.5374C52.3761 32.3214 52.6468 32.2054 52.9628 32.2054C53.0015 32.2054 53.0561 32.2054 53.0948 32.2134V31.9588C52.8161 31.9428 52.5535 32.0041 52.3068 32.1281C52.0361 32.2748 51.8668 32.4761 51.7895 32.7308H51.7735V31.9814H51.5188Z" fill="#F9FBFC"/>
<path d="M53.5422 34.7619C53.3262 34.4765 53.2182 34.1125 53.2182 33.6805C53.2182 33.2485 53.3262 32.8845 53.5422 32.5992C53.7822 32.2752 54.1142 32.1205 54.5302 32.1205C54.9475 32.1205 55.2795 32.2752 55.5195 32.5992C55.7435 32.8845 55.8515 33.2485 55.8515 33.6805C55.8515 34.1125 55.7435 34.4765 55.5275 34.7619C55.2875 35.0859 54.9555 35.2485 54.5302 35.2485C54.1142 35.2485 53.7822 35.0859 53.5422 34.7619ZM53.3649 32.4299C53.1022 32.7619 52.9702 33.1792 52.9702 33.6805C52.9702 34.1899 53.1022 34.6072 53.3649 34.9312C53.6502 35.2872 54.0369 35.4645 54.5302 35.4645C55.0169 35.4645 55.4115 35.2872 55.6969 34.9312C55.9675 34.5992 56.0982 34.1832 56.0982 33.6805C56.0982 33.1712 55.9675 32.7539 55.7049 32.4299C55.4195 32.0819 55.0329 31.9045 54.5302 31.9045C54.0449 31.9045 53.6582 32.0819 53.3649 32.4299Z" fill="#F9FBFC"/>
<path d="M56.4539 31.9814V35.3868H56.7085V33.5414C56.7085 33.1321 56.8085 32.7921 57.0099 32.5374C57.2259 32.2521 57.5272 32.1201 57.9285 32.1201C58.5779 32.1201 58.9019 32.4908 58.9019 33.2254V35.3868H59.1499V33.2708C59.1499 32.9161 59.0952 32.6374 58.9872 32.4294C58.8019 32.0748 58.4539 31.9041 57.9365 31.9041C57.6659 31.9041 57.4192 31.9734 57.1952 32.1121C56.9632 32.2601 56.8019 32.4601 56.7165 32.7081H56.7085V31.9814H56.4539Z" fill="#F9FBFC"/>
<path d="M59.7122 35.3873H59.9669V31.9819H59.7122V35.3873Z" fill="#F9FBFC"/>
<path d="M59.7122 31.3405H59.9669V30.6538H59.7122V31.3405Z" fill="#F9FBFC"/>
<path d="M60.7787 32.414C60.516 32.7313 60.3773 33.1407 60.3773 33.642C60.3773 34.1753 60.508 34.6073 60.756 34.9233C61.0333 35.2873 61.4347 35.4647 61.952 35.4647C62.3387 35.4647 62.6627 35.3487 62.9173 35.1247C63.18 34.8927 63.3347 34.5767 63.3893 34.19H63.1267C63.088 34.5073 62.956 34.762 62.748 34.9553C62.532 35.1473 62.2613 35.2487 61.952 35.2487C61.504 35.2487 61.1653 35.086 60.9413 34.762C60.732 34.4767 60.632 34.106 60.632 33.642C60.632 33.2247 60.74 32.87 60.964 32.5833C61.2107 32.2753 61.536 32.1207 61.952 32.1207C62.2613 32.1207 62.524 32.19 62.732 32.3367C62.956 32.4993 63.08 32.7313 63.1027 33.0393H63.3507C63.32 32.654 63.1653 32.3593 62.9027 32.1673C62.6547 31.9887 62.3387 31.9047 61.952 31.9047C61.4507 31.9047 61.064 32.074 60.7787 32.414Z" fill="#F9FBFC"/>
<path d="M65.706 33.9587C65.946 34.0747 66.0687 34.2601 66.0687 34.5227C66.0687 35.0094 65.706 35.2481 64.9793 35.2481C64.6713 35.2481 64.4087 35.1561 64.2007 34.9787C63.9913 34.8001 63.8753 34.5534 63.8607 34.2521H63.6127C63.6207 34.6387 63.7527 34.9401 64.014 35.1641C64.262 35.3641 64.586 35.4654 64.9793 35.4654C65.3513 35.4654 65.6513 35.4027 65.8753 35.2721C66.1687 35.1094 66.3167 34.8547 66.3167 34.5227C66.3167 34.2054 66.2007 33.9667 65.9607 33.8121C65.7993 33.7041 65.5287 33.6107 65.166 33.5414C64.7487 33.4574 64.478 33.3801 64.3393 33.3094C64.0993 33.1947 63.9767 33.0161 63.9767 32.7774C63.9767 32.5454 64.0913 32.3681 64.3153 32.2521C64.494 32.1587 64.71 32.1201 64.9647 32.1201C65.6287 32.1201 65.9607 32.4067 65.9607 32.9854H66.2233C66.2233 32.2601 65.7993 31.9041 64.9647 31.9041C64.6167 31.9041 64.3393 31.9587 64.13 32.0747C63.8607 32.2214 63.7287 32.4601 63.7287 32.7774C63.7287 33.0787 63.8527 33.3174 64.0913 33.4721C64.2313 33.5721 64.494 33.6574 64.8793 33.7347C65.2887 33.8121 65.5593 33.8894 65.706 33.9587Z" fill="#F9FBFC"/>
</svg>
