<svg width="35" height="22" viewBox="0 0 35 22" fill="none" xmlns="http://www.w3.org/2000/svg"><g opacity=".5"><path d="M0 0h35v22H0z"/><path d="M21.85 10.987c0 6.022-4.89 10.902-10.925 10.902C4.891 21.889 0 17.009 0 10.987 0 4.967 4.892.086 10.925.086c6.034 0 10.926 4.88 10.926 10.901z" fill="#6F6F6F"/><path d="M24.047.086c-2.45 0-4.707.814-6.53 2.174h.01c.358.346.753.59 1.058.987l-2.273.036c-.356.359-.68.75-.987 1.155h4.009c.305.365.587.682.843 1.086h-5.578c-.205.35-.394.712-.559 1.086h6.772c.177.374.335.657.47 1.053h-7.643c-.121.376-.225.76-.304 1.153h8.267c.08.377.143.726.186 1.081H13.17a10.89 10.89 0 0 0-.054 1.09h8.733c0 .386-.028.744-.067 1.09H13.17c.038.37.092.733.164 1.09h8.254a12.89 12.89 0 0 1-.307 1.078h-7.668c.116.373.257.735.41 1.088h6.788c-.188.397-.402.714-.636 1.086h-5.597c.22.381.465.745.729 1.094l4.026.06c-.343.411-.784.659-1.185 1.018.022.018-.641-.002-1.947-.023a10.901 10.901 0 0 0 7.844 3.321c6.036 0 10.929-4.88 10.929-10.901S30.083.086 24.047.086z" fill="#fff"/></g></svg>