<svg width="47" height="15" viewBox="0 0 47 15" fill="none" xmlns="http://www.w3.org/2000/svg"><g opacity=".405"><path d="M0 0h47v15H0z"/><path d="M18.431 0L16 14.266h3.888L22.321 0h-3.89zM12.6.003L8.792 9.732l-.406-1.469C7.635 6.493 5.503 3.951 3 2.349l3.482 11.897 4.114-.007L16.719 0 12.6.003z" fill="#fff"/><path d="M7.772 1.159C7.546.29 6.891.031 6.078 0H.05L0 .285c4.691 1.138 7.795 3.88 9.083 7.177L7.772 1.159zM30.88 2.98a7.178 7.178 0 0 1 2.91.546l.351.165.526-3.092C33.897.31 32.69 0 31.184 0c-3.842 0-6.55 1.935-6.571 4.708-.025 2.049 1.929 3.193 3.405 3.876 1.515.7 2.023 1.145 2.016 1.77-.012.955-1.208 1.393-2.325 1.393-1.557 0-2.384-.215-3.661-.747l-.501-.228L23 13.965c.91.399 2.589.742 4.332.76 4.087 0 6.743-1.912 6.771-4.875.017-1.621-1.02-2.858-3.267-3.873-1.36-.662-2.192-1.102-2.184-1.77 0-.593.706-1.227 2.228-1.227z" fill="#fff"/><path fill-rule="evenodd" clip-rule="evenodd" d="M40.81 0h3.004l3.146 14.258h-3.607l-.294-1.336c-.072-.326-.14-.63-.18-.801l-4.979-.006c-.151.385-.817 2.143-.817 2.143H33l5.773-13.074C39.183.254 39.877 0 40.81 0zm-1.195 7.664l-.596 1.532h3.23l-.901-4.119-.262-1.23c-.201.537-.539 1.401-.518 1.362l-.953 2.455z" fill="#fff"/></g></svg>